<svg xmlns="http://www.w3.org/2000/svg" version="1.1" xmlns:xlink="http://www.w3.org/1999/xlink" xmlns:svgjs="http://svgjs.dev/svgjs" width="1000" height="335" viewBox="0 0 1000 335"><g transform="matrix(1,0,0,1,-0.6060606060606233,0.33370045905923007)"><svg viewBox="0 0 396 133" data-background-color="#ffffff" preserveAspectRatio="xMidYMid meet" height="335" width="1000" xmlns="http://www.w3.org/2000/svg" xmlns:xlink="http://www.w3.org/1999/xlink"><g id="tight-bounds" transform="matrix(1,0,0,1,0.2400000000000091,-0.13248406285038072)"><svg viewBox="0 0 395.52 133.26496812570073" height="133.26496812570073" width="395.52"><g><svg viewBox="0 0 395.52 133.26496812570073" height="133.26496812570073" width="395.52"><g transform="matrix(1,0,0,1,0,60.47841569105731)"><svg viewBox="0 0 395.52 72.78655243464343" height="72.78655243464343" width="395.52"><g><svg viewBox="0 0 395.52 72.78655243464343" height="72.78655243464343" width="395.52"><g><svg viewBox="0 0 395.52 43.134024461269654" height="43.134024461269654" width="395.52"><g transform="matrix(1,0,0,1,0,0)"><svg width="395.52" viewBox="1.49 -36.06 338.5 36.57" height="43.134024461269654" data-palette-color="#e6001f"><g class="undefined-text-0" data-fill-palette-color="primary" id="text-0"><path d="M15.8 0L1.49 0 1.49-4 5.32-4.74 5.32-30.79 1.49-31.52 1.49-35.55 5.32-35.55 18.29-35.55Q22.31-35.55 25.21-34.14 28.1-32.74 29.66-30.21 31.23-27.69 31.23-24.34L31.23-24.34Q31.23-20.97 29.66-18.47 28.1-15.97 25.21-14.58 22.31-13.18 18.29-13.18L18.29-13.18 11.96-13.18 11.96-4.74 15.8-4 15.8 0ZM11.96-30.42L11.96-18.31 18.29-18.31Q21.41-18.31 23-20 24.58-21.68 24.58-24.29L24.58-24.29Q24.58-26.93 23-28.67 21.41-30.42 18.29-30.42L18.29-30.42 11.96-30.42ZM45.04 0L33.35 0 33.35-4 35.91-4.37 47.46-35.55 54.07-35.55 65.52-4.37 68.06-4 68.06 0 56.37 0 56.37-4 58.88-4.47 57.15-9.69 44.28-9.69 42.55-4.47 45.04-4 45.04 0ZM50.29-27.29L45.92-14.7 55.52-14.7 51.14-27.34 50.8-28.37 50.66-28.37 50.29-27.29ZM85 0L70.7 0 70.7-4 74.53-4.74 74.53-30.79 70.7-31.52 70.7-35.55 87.35-35.55Q91.38-35.55 94.27-34.3 97.16-33.06 98.69-30.71 100.21-28.37 100.21-25.1L100.21-25.1Q100.21-21.97 98.7-19.58 97.19-17.19 94.47-15.83 91.74-14.48 88.15-14.45L88.15-14.45 81.17-14.43 81.17-4.74 85-4 85 0ZM101.78 0L93.7 0 87.3-15.87 93.4-17.11 98.87-4.69 101.78-4.05 101.78 0ZM81.17-30.42L81.17-19.56 87.13-19.56Q90.42-19.56 92.01-20.91 93.6-22.27 93.6-24.85L93.6-24.85Q93.6-27.39 92.04-28.91 90.47-30.42 87.35-30.42L87.35-30.42 81.17-30.42ZM120.87 0.51L120.87 0.51Q117.3 0.51 114.4-0.82 111.49-2.15 109.4-4.58 107.32-7.01 106.19-10.29 105.07-13.57 105.07-17.5L105.07-17.5 105.07-18.04Q105.07-21.95 106.19-25.23 107.32-28.52 109.4-30.94 111.49-33.37 114.38-34.72 117.28-36.06 120.84-36.06L120.84-36.06Q124.48-36.06 127.4-34.72 130.31-33.37 132.41-30.94 134.51-28.52 135.62-25.23 136.74-21.95 136.74-18.04L136.74-18.04 136.74-17.5Q136.74-13.57 135.62-10.29 134.51-7.01 132.43-4.58 130.34-2.15 127.41-0.82 124.48 0.51 120.87 0.51ZM120.87-4.71L120.87-4.71Q123.99-4.71 126.04-6.31 128.09-7.91 129.11-10.79 130.12-13.67 130.12-17.5L130.12-17.5 130.12-18.09Q130.12-21.88 129.09-24.73 128.07-27.59 126.01-29.2 123.94-30.81 120.84-30.81L120.84-30.81Q117.81-30.81 115.79-29.21 113.76-27.61 112.75-24.76 111.74-21.9 111.74-18.09L111.74-18.09 111.74-17.5Q111.74-13.7 112.75-10.8 113.76-7.91 115.8-6.31 117.84-4.71 120.87-4.71ZM166.27 0L139.76 0 139.76-4 143.59-4.74 143.59-30.79 139.76-31.52 139.76-35.55 143.59-35.55 150.23-35.55 154.46-35.55 154.46-31.52 150.23-30.79 150.23-5.08 160.81-5.08 161.2-10.38 166.27-10.38 166.27 0ZM197.01 0L169.1 0 169.1-4 172.94-4.74 172.94-30.79 169.1-31.52 169.1-35.55 196.42-35.55 196.42-26.17 191.3-26.17 190.93-30.44 179.58-30.44 179.58-20.95 191.83-20.95 191.83-15.8 179.58-15.8 179.58-5.08 191.56-5.08 191.93-9.45 197.01-9.45 197.01 0Z" fill="#e6001f" data-fill-palette-color="primary"></path><path d="M225.01 0L198.5 0 198.5-4 202.33-4.74 202.33-30.79 198.5-31.52 198.5-35.55 202.33-35.55 208.97-35.55 213.2-35.55 213.2-31.52 208.97-30.79 208.97-5.08 219.54-5.08 219.93-10.38 225.01-10.38 225.01 0ZM242.15 0L227.84 0 227.84-4 231.68-4.74 231.68-30.79 227.84-31.52 227.84-35.55 242.15-35.55 242.15-31.52 238.32-30.79 238.32-4.74 242.15-4 242.15 0ZM262.48 0L245.13 0 245.13-4 248.96-4.74 248.96-30.79 245.13-31.52 245.13-35.55 248.96-35.55 260.82-35.55Q266.95-35.55 270.39-33.12 273.84-30.69 273.84-25.83L273.84-25.83Q273.84-23.39 272.48-21.46 271.13-19.53 268.66-18.58L268.66-18.58Q270.78-18.12 272.22-16.92 273.67-15.72 274.41-14.01 275.15-12.3 275.15-10.28L275.15-10.28Q275.15-5.22 271.82-2.61 268.49 0 262.48 0L262.48 0ZM255.6-15.92L255.6-5.1 262.48-5.1Q265.41-5.1 266.96-6.42 268.51-7.74 268.51-10.28L268.51-10.28Q268.51-12.08 267.94-13.34 267.37-14.6 266.16-15.26 264.95-15.92 263.07-15.92L263.07-15.92 255.6-15.92ZM255.6-30.42L255.6-20.61 261.29-20.61Q264.09-20.61 265.65-21.85 267.2-23.1 267.2-25.42L267.2-25.42Q267.2-27.98 265.58-29.2 263.97-30.42 260.82-30.42L260.82-30.42 255.6-30.42ZM292.14 0L277.84 0 277.84-4 281.67-4.74 281.67-30.79 277.84-31.52 277.84-35.55 294.49-35.55Q298.52-35.55 301.41-34.3 304.3-33.06 305.83-30.71 307.35-28.37 307.35-25.1L307.35-25.1Q307.35-21.97 305.84-19.58 304.33-17.19 301.6-15.83 298.88-14.48 295.29-14.45L295.29-14.45 288.31-14.43 288.31-4.74 292.14-4 292.14 0ZM308.92 0L300.84 0 294.44-15.87 300.54-17.11 306.01-4.69 308.92-4.05 308.92 0ZM288.31-30.42L288.31-19.56 294.27-19.56Q297.56-19.56 299.15-20.91 300.74-22.27 300.74-24.85L300.74-24.85Q300.74-27.39 299.18-28.91 297.61-30.42 294.49-30.42L294.49-30.42 288.31-30.42ZM339.99 0L312.09 0 312.09-4 315.92-4.74 315.92-30.79 312.09-31.52 312.09-35.55 339.41-35.55 339.41-26.17 334.28-26.17 333.91-30.44 322.56-30.44 322.56-20.95 334.82-20.95 334.82-15.8 322.56-15.8 322.56-5.08 334.55-5.08 334.92-9.45 339.99-9.45 339.99 0Z" fill="#001d6e" data-fill-palette-color="secondary"></path></g></svg></g></svg></g><g transform="matrix(1,0,0,1,207.648,53.31693241998835)"><svg viewBox="0 0 187.87199999999999 19.469620014655078" height="19.469620014655078" width="187.87199999999999"><g transform="matrix(1,0,0,1,0,0)"><svg width="187.87199999999999" viewBox="0.3 -37 477.59 49.5" height="19.469620014655078" data-palette-color="#001d6e"><path d="M6.65-33.5L6.65-33.5Q9.2-35.15 12.13-36.08 15.05-37 17.85-37L17.85-37Q18.2-37 18.63-36.98 19.05-36.95 19.85-36.9L19.85-36.9 12.15-1Q13.3-0.75 14.63-0.18 15.95 0.4 18.65 1.85L18.65 1.85Q22.7 4.05 24.85 4.75 27 5.45 28.95 5.45L28.95 5.45Q30.1 5.45 31.13 5.25 32.15 5.05 33.15 4.65L33.15 4.65Q32.75 8.25 31.35 10.38 29.95 12.5 27.95 12.5L27.95 12.5Q26.15 12.5 24.13 11.53 22.1 10.55 18 7.3L18 7.3Q13.3 3.5 10.7 2.33 8.1 1.15 5.65 1.15L5.65 1.15Q5.2 1.15 4.95 1.15 4.7 1.15 4.5 1.2L4.5 1.2 11.95-33.45Q8.55-32.05 6.75-29.25 4.95-26.45 4.95-22.55L4.95-22.55Q4.95-21.6 5.08-20.9 5.2-20.2 5.5-19.55L5.5-19.55Q5.6-19.35 5.63-19.28 5.65-19.2 5.65-19.15L5.65-19.15Q2.85-19.15 1.58-20.33 0.3-21.5 0.3-24L0.3-24Q0.3-26.5 1.98-29 3.65-31.5 6.65-33.5ZM37.3-20.65L37.3-20.65Q37.3-16.5 33.9-13.43 30.5-10.35 25.8-10.1L25.8-10.1Q25.75-9.25 25.72-8.83 25.7-8.4 25.7-8.1L25.7-8.1Q25.7-5.8 26.47-4.85 27.25-3.9 29.3-3.9L29.3-3.9Q31.65-3.9 33.62-4.98 35.6-6.05 38.15-8.95L38.15-8.95 39.85-8.95Q36.95-4.25 33.55-1.98 30.15 0.3 26.1 0.3L26.1 0.3Q22.25 0.3 20.27-1.7 18.3-3.7 18.3-7.65L18.3-7.65Q18.3-10.5 19.2-13.7 20.1-16.9 21.6-19.4L21.6-19.4Q23.45-22.4 26.02-23.93 28.6-25.45 31.8-25.45L31.8-25.45Q34.55-25.45 35.92-24.28 37.3-23.1 37.3-20.65ZM32.2-22.8L32.2-22.8Q30.5-22.8 28.77-19.78 27.05-16.75 26.2-12.5L26.2-12.5Q29.1-12.7 31.27-15.18 33.45-17.65 33.45-20.75L33.45-20.75Q33.45-21.8 33.15-22.3 32.85-22.8 32.2-22.8ZM73.49-5.35L73.49-5.35Q73.49-6.25 73.72-7.6 73.94-8.95 74.64-11.9L74.64-11.9Q75.34-14.75 75.54-16 75.74-17.25 75.74-18.1L75.74-18.1Q75.74-19.35 75.29-20 74.84-20.65 73.94-20.65L73.94-20.65Q72.74-20.65 71.72-19.43 70.69-18.2 70.04-16.05L70.04-16.05 66.64 0 59.44 0 63.09-17.25Q63.19-17.55 63.22-17.85 63.24-18.15 63.24-18.5L63.24-18.5Q63.24-19.5 62.84-20.1 62.44-20.7 61.74-20.7L61.74-20.7Q60.44-20.7 59.39-19.48 58.34-18.25 57.69-16.05L57.69-16.05 54.29 0 47.09 0 52.39-25 59.59-25 59.04-22.4Q60.29-23.85 61.79-24.55 63.29-25.25 65.14-25.25L65.14-25.25Q67.34-25.25 68.62-24.18 69.89-23.1 70.29-20.95L70.29-20.95Q71.69-23.1 73.39-24.15 75.09-25.2 77.24-25.2L77.24-25.2Q79.89-25.2 81.34-23.75 82.79-22.3 82.79-19.55L82.79-19.55Q82.79-18.4 82.52-16.82 82.24-15.25 81.44-12L81.44-12Q80.79-9.45 80.59-8.4 80.39-7.35 80.39-6.65L80.39-6.65Q80.39-5.6 80.89-5.08 81.39-4.55 82.39-4.55L82.39-4.55Q83.64-4.55 84.54-5.4 85.44-6.25 86.59-8.95L86.59-8.95 88.69-8.95Q87.09-4.3 84.82-2 82.54 0.3 79.39 0.3L79.39 0.3Q76.59 0.3 75.04-1.23 73.49-2.75 73.49-5.35ZM105.54-20.65L105.54-20.65Q105.54-16.5 102.14-13.43 98.74-10.35 94.04-10.1L94.04-10.1Q93.99-9.25 93.97-8.83 93.94-8.4 93.94-8.1L93.94-8.1Q93.94-5.8 94.72-4.85 95.49-3.9 97.54-3.9L97.54-3.9Q99.89-3.9 101.86-4.98 103.84-6.05 106.39-8.95L106.39-8.95 108.09-8.95Q105.19-4.25 101.79-1.98 98.39 0.3 94.34 0.3L94.34 0.3Q90.49 0.3 88.52-1.7 86.54-3.7 86.54-7.65L86.54-7.65Q86.54-10.5 87.44-13.7 88.34-16.9 89.84-19.4L89.84-19.4Q91.69-22.4 94.27-23.93 96.84-25.45 100.04-25.45L100.04-25.45Q102.79-25.45 104.16-24.28 105.54-23.1 105.54-20.65ZM100.44-22.8L100.44-22.8Q98.74-22.8 97.02-19.78 95.29-16.75 94.44-12.5L94.44-12.5Q97.34-12.7 99.52-15.18 101.69-17.65 101.69-20.75L101.69-20.75Q101.69-21.8 101.39-22.3 101.09-22.8 100.44-22.8ZM113.44-8.45L113.44-8.45Q113.44-6.5 113.99-5.53 114.54-4.55 115.94-4.55L115.94-4.55Q117.19-4.55 118.39-5.73 119.59-6.9 120.04-8.7L120.04-8.7 120.04-8.95 122.49-20.4Q122.34-21.2 121.81-21.68 121.29-22.15 120.44-22.15L120.44-22.15Q117.69-22.15 115.56-17.55 113.44-12.95 113.44-8.45ZM122.94-22.7L122.94-22.7 122.94-22.5 125.39-34 132.79-35 127.04-8Q126.94-7.55 126.89-7.18 126.84-6.8 126.84-6.4L126.84-6.4Q126.84-5.4 127.31-4.98 127.79-4.55 128.89-4.55L128.89-4.55Q130.19-4.55 131.24-5.7 132.29-6.85 132.94-8.95L132.94-8.95 135.04-8.95Q133.49-4.5 131.01-2.25 128.54 0 124.99 0L124.99 0Q122.94 0 121.66-1.13 120.39-2.25 120.09-4.3L120.09-4.3Q118.59-2 116.74-0.85 114.89 0.3 112.69 0.3L112.69 0.3Q109.59 0.3 107.81-1.8 106.04-3.9 106.04-7.75L106.04-7.75Q106.04-10.55 106.89-13.6 107.74-16.65 109.24-19.15L109.24-19.15Q111.09-22.1 113.54-23.68 115.99-25.25 118.89-25.25L118.89-25.25Q120.84-25.25 121.89-24.58 122.94-23.9 122.94-22.7ZM145.38-31.65L145.38-31.65Q145.38-30 144.21-28.85 143.03-27.7 141.38-27.7L141.38-27.7Q139.73-27.7 138.59-28.85 137.44-30 137.44-31.65L137.44-31.65Q137.44-33.3 138.59-34.48 139.73-35.65 141.38-35.65L141.38-35.65Q143.03-35.65 144.21-34.48 145.38-33.3 145.38-31.65ZM132.63-5.7L132.63-5.7Q132.63-6.35 132.73-7.18 132.84-8 133.03-8.95L133.03-8.95 136.44-25 143.63-25 140.03-8Q139.94-7.55 139.88-7.18 139.84-6.8 139.84-6.4L139.84-6.4Q139.84-5.4 140.31-4.98 140.78-4.55 141.88-4.55L141.88-4.55Q143.28-4.55 144.53-5.78 145.78-7 146.38-8.95L146.38-8.95 148.48-8.95Q146.88-4.4 144.19-2.05 141.48 0.3 137.98 0.3L137.98 0.3Q135.48 0.3 134.06-1.28 132.63-2.85 132.63-5.7ZM162.63-22.7L162.63-22.7 162.63-22.35 163.18-25 170.38-25 166.78-8Q166.68-7.55 166.63-7.18 166.58-6.8 166.58-6.4L166.58-6.4Q166.58-5.3 167.08-4.78 167.58-4.25 168.63-4.25L168.63-4.25Q169.93-4.25 170.98-5.48 172.03-6.7 172.68-8.95L172.68-8.95 174.78-8.95Q173.18-4.35 170.63-2.02 168.08 0.3 164.73 0.3L164.73 0.3Q162.58 0.3 161.31-0.9 160.03-2.1 159.83-4.3L159.83-4.3Q158.28-2 156.41-0.85 154.53 0.3 152.38 0.3L152.38 0.3Q149.28 0.3 147.51-1.8 145.73-3.9 145.73-7.75L145.73-7.75Q145.73-10.55 146.58-13.6 147.43-16.65 148.93-19.15L148.93-19.15Q150.78-22.1 153.23-23.68 155.68-25.25 158.58-25.25L158.58-25.25Q160.53-25.25 161.58-24.58 162.63-23.9 162.63-22.7ZM159.78-8.95L162.18-20.25Q162.18-21 161.63-21.58 161.08-22.15 160.13-22.15L160.13-22.15Q157.38-22.15 155.26-17.55 153.13-12.95 153.13-8.45L153.13-8.45Q153.13-6.5 153.68-5.53 154.23-4.55 155.63-4.55L155.63-4.55Q156.93-4.55 158.16-5.8 159.38-7.05 159.78-8.95L159.78-8.95ZM192.88-19.2L189.93-5.2Q190.13-4.65 190.63-4.35 191.13-4.05 191.83-4.05L191.83-4.05Q194.98-4.05 196.9-8.1 198.83-12.15 198.83-17.5L198.83-17.5Q198.83-19.55 198.23-20.6 197.63-21.65 196.33-21.65L196.33-21.65Q195.43-21.65 194.48-20.98 193.53-20.3 192.88-19.2L192.88-19.2ZM189.13-1.5L186.53 10.7 178.98 12.5 187.33-26.85 194.53-26.85 193.73-23.1Q194.98-24.15 196.43-24.7 197.88-25.25 199.58-25.25L199.58-25.25Q202.58-25.25 204.13-23.25 205.68-21.25 205.68-17.35L205.68-17.35Q205.68-9.7 202.4-4.7 199.13 0.3 193.38 0.3L193.38 0.3Q191.78 0.3 190.7-0.15 189.63-0.6 189.13-1.5L189.13-1.5ZM206.23-7.7L206.23-7.7Q206.23-10.55 207.15-13.75 208.08-16.95 209.68-19.45L209.68-19.45Q211.53-22.4 214.13-23.93 216.73-25.45 219.93-25.45L219.93-25.45Q223.13-25.45 224.73-23.45 226.33-21.45 226.33-17.45L226.33-17.45Q226.43-17.4 226.55-17.38 226.68-17.35 226.88-17.35L226.88-17.35Q228.43-17.35 230.58-18.2 232.73-19.05 234.58-20.35L234.58-20.35 235.03-19Q233.63-17.5 231.3-16.4 228.98-15.3 226.18-14.85L226.18-14.85Q225.58-8.1 222.28-3.95 218.98 0.2 214.23 0.2L214.23 0.2Q210.33 0.2 208.28-1.8 206.23-3.8 206.23-7.7ZM220.33-22.4L220.33-22.4Q217.93-22.4 215.8-17.55 213.68-12.7 213.68-8.35L213.68-8.35Q213.68-6 214.2-5.15 214.73-4.3 216.23-4.3L216.23-4.3Q218.08-4.3 219.75-7.3 221.43-10.3 222.03-14.7L222.03-14.7Q221.33-14.85 221-15.38 220.68-15.9 220.68-16.8L220.68-16.8Q220.68-17.75 221.08-18.45 221.48-19.15 222.23-19.5L222.23-19.5Q222.13-21.1 221.7-21.75 221.28-22.4 220.33-22.4ZM238.77-19.2L235.82-5.2Q236.02-4.65 236.52-4.35 237.02-4.05 237.72-4.05L237.72-4.05Q240.87-4.05 242.8-8.1 244.72-12.15 244.72-17.5L244.72-17.5Q244.72-19.55 244.12-20.6 243.52-21.65 242.22-21.65L242.22-21.65Q241.32-21.65 240.37-20.98 239.42-20.3 238.77-19.2L238.77-19.2ZM235.02-1.5L232.42 10.7 224.87 12.5 233.22-26.85 240.42-26.85 239.62-23.1Q240.87-24.15 242.32-24.7 243.77-25.25 245.47-25.25L245.47-25.25Q248.47-25.25 250.02-23.25 251.57-21.25 251.57-17.35L251.57-17.35Q251.57-9.7 248.3-4.7 245.02 0.3 239.27 0.3L239.27 0.3Q237.67 0.3 236.6-0.15 235.52-0.6 235.02-1.5L235.02-1.5ZM261.17-4.55L261.17-4.55Q262.47-4.55 263.5-5.68 264.52-6.8 265.17-8.95L265.17-8.95 268.57-25 275.77-25 272.17-8Q272.07-7.55 272.02-7.18 271.97-6.8 271.97-6.4L271.97-6.4Q271.97-5.4 272.45-4.98 272.92-4.55 274.02-4.55L274.02-4.55Q275.32-4.55 276.37-5.7 277.42-6.85 278.07-8.95L278.07-8.95 280.17-8.95Q278.57-4.35 276.02-2.02 273.47 0.3 270.12 0.3L270.12 0.3Q267.97 0.3 266.67-0.93 265.37-2.15 265.17-4.45L265.17-4.45Q263.72-2.05 261.9-0.88 260.07 0.3 257.77 0.3L257.77 0.3Q255.27 0.3 253.85-1.28 252.42-2.85 252.42-5.7L252.42-5.7Q252.42-6.35 252.52-7.18 252.62-8 252.82-8.95L252.82-8.95 256.22-25 263.42-25 259.82-8Q259.72-7.6 259.7-7.28 259.67-6.95 259.67-6.6L259.67-6.6Q259.67-5.6 260.05-5.08 260.42-4.55 261.17-4.55ZM277.67-5.7L277.67-5.7Q277.67-6.35 277.77-7.18 277.87-8 278.07-8.95L278.07-8.95 283.42-34 290.82-35 285.07-8Q284.97-7.55 284.92-7.18 284.87-6.8 284.87-6.4L284.87-6.4Q284.87-5.4 285.34-4.98 285.82-4.55 286.92-4.55L286.92-4.55Q288.32-4.55 289.57-5.78 290.82-7 291.42-8.95L291.42-8.95 293.52-8.95Q291.92-4.4 289.22-2.05 286.52 0.3 283.02 0.3L283.02 0.3Q280.52 0.3 279.09-1.28 277.67-2.85 277.67-5.7ZM306.42-22.7L306.42-22.7 306.42-22.35 306.97-25 314.17-25 310.57-8Q310.47-7.55 310.42-7.18 310.37-6.8 310.37-6.4L310.37-6.4Q310.37-5.3 310.87-4.78 311.37-4.25 312.42-4.25L312.42-4.25Q313.72-4.25 314.77-5.48 315.82-6.7 316.47-8.95L316.47-8.95 318.57-8.95Q316.97-4.35 314.42-2.02 311.87 0.3 308.52 0.3L308.52 0.3Q306.37 0.3 305.09-0.9 303.82-2.1 303.62-4.3L303.62-4.3Q302.07-2 300.19-0.85 298.32 0.3 296.17 0.3L296.17 0.3Q293.07 0.3 291.29-1.8 289.52-3.9 289.52-7.75L289.52-7.75Q289.52-10.55 290.37-13.6 291.22-16.65 292.72-19.15L292.72-19.15Q294.57-22.1 297.02-23.68 299.47-25.25 302.37-25.25L302.37-25.25Q304.32-25.25 305.37-24.58 306.42-23.9 306.42-22.7ZM303.57-8.95L305.97-20.25Q305.97-21 305.42-21.58 304.87-22.15 303.92-22.15L303.92-22.15Q301.17-22.15 299.04-17.55 296.92-12.95 296.92-8.45L296.92-8.45Q296.92-6.5 297.47-5.53 298.02-4.55 299.42-4.55L299.42-4.55Q300.72-4.55 301.94-5.8 303.17-7.05 303.57-8.95L303.57-8.95ZM328.81-31.65L328.81-31.65Q328.81-30 327.64-28.85 326.46-27.7 324.81-27.7L324.81-27.7Q323.16-27.7 322.01-28.85 320.86-30 320.86-31.65L320.86-31.65Q320.86-33.3 322.01-34.48 323.16-35.65 324.81-35.65L324.81-35.65Q326.46-35.65 327.64-34.48 328.81-33.3 328.81-31.65ZM316.06-5.7L316.06-5.7Q316.06-6.35 316.16-7.18 316.26-8 316.46-8.95L316.46-8.95 319.86-25 327.06-25 323.46-8Q323.36-7.55 323.31-7.18 323.26-6.8 323.26-6.4L323.26-6.4Q323.26-5.4 323.74-4.98 324.21-4.55 325.31-4.55L325.31-4.55Q326.71-4.55 327.96-5.78 329.21-7 329.81-8.95L329.81-8.95 331.91-8.95Q330.31-4.4 327.61-2.05 324.91 0.3 321.41 0.3L321.41 0.3Q318.91 0.3 317.49-1.28 316.06-2.85 316.06-5.7ZM339.11-19L335.11 0 327.91 0 333.21-25 340.41-25 339.76-21.9Q341.96-23.75 343.24-24.38 344.51-25 345.81-25L345.81-25Q347.36-25 348.31-23.93 349.26-22.85 349.26-21.25L349.26-21.25Q349.26-19.7 348.26-18.65 347.26-17.6 345.66-17.6L345.66-17.6Q344.81-17.6 344.34-18 343.86-18.4 343.66-19.65L343.66-19.65Q343.51-20.45 343.31-20.68 343.11-20.9 342.76-20.9L342.76-20.9Q341.91-20.9 341.16-20.55 340.41-20.2 339.11-19L339.11-19ZM366.86-20.65L366.86-20.65Q366.86-16.5 363.46-13.43 360.06-10.35 355.36-10.1L355.36-10.1Q355.31-9.25 355.28-8.83 355.26-8.4 355.26-8.1L355.26-8.1Q355.26-5.8 356.03-4.85 356.81-3.9 358.86-3.9L358.86-3.9Q361.21-3.9 363.18-4.98 365.16-6.05 367.71-8.95L367.71-8.95 369.41-8.95Q366.51-4.25 363.11-1.98 359.71 0.3 355.66 0.3L355.66 0.3Q351.81 0.3 349.83-1.7 347.86-3.7 347.86-7.65L347.86-7.65Q347.86-10.5 348.76-13.7 349.66-16.9 351.16-19.4L351.16-19.4Q353.01-22.4 355.58-23.93 358.16-25.45 361.36-25.45L361.36-25.45Q364.11-25.45 365.48-24.28 366.86-23.1 366.86-20.65ZM361.76-22.8L361.76-22.8Q360.06-22.8 358.33-19.78 356.61-16.75 355.76-12.5L355.76-12.5Q358.66-12.7 360.83-15.18 363.01-17.65 363.01-20.75L363.01-20.75Q363.01-21.8 362.71-22.3 362.41-22.8 361.76-22.8ZM372.21 0.9L372.21 0.9Q372.21 0.6 372.03 0.35 371.86 0.1 371.56-0.1L371.56-0.1Q370.36-0.9 369.78-1.8 369.21-2.7 369.21-3.75L369.21-3.75Q369.21-5.4 370.36-6.58 371.51-7.75 373.16-7.75L373.16-7.75Q374.71-7.75 375.63-6.73 376.56-5.7 376.56-3.95L376.56-3.95Q376.56-1.5 374.73 1.4 372.91 4.3 370.06 6.3L370.06 6.3Q369.81 6.15 369.71 5.93 369.61 5.7 369.61 5.45L369.61 5.45Q369.61 5 369.86 4.53 370.11 4.05 370.91 3.2L370.91 3.2Q371.71 2.35 371.96 1.88 372.21 1.4 372.21 0.9ZM389.25-5.7L389.25-5.7Q389.25-6.35 389.35-7.18 389.45-8 389.65-8.95L389.65-8.95 395-34 402.4-35 396.65-8Q396.55-7.55 396.5-7.18 396.45-6.8 396.45-6.4L396.45-6.4Q396.45-5.4 396.93-4.98 397.4-4.55 398.5-4.55L398.5-4.55Q399.9-4.55 401.15-5.78 402.4-7 403-8.95L403-8.95 405.1-8.95Q403.5-4.4 400.8-2.05 398.1 0.3 394.6 0.3L394.6 0.3Q392.1 0.3 390.68-1.28 389.25-2.85 389.25-5.7ZM415.1-31.65L415.1-31.65Q415.1-30 413.92-28.85 412.75-27.7 411.1-27.7L411.1-27.7Q409.45-27.7 408.3-28.85 407.15-30 407.15-31.65L407.15-31.65Q407.15-33.3 408.3-34.48 409.45-35.65 411.1-35.65L411.1-35.65Q412.75-35.65 413.92-34.48 415.1-33.3 415.1-31.65ZM402.35-5.7L402.35-5.7Q402.35-6.35 402.45-7.18 402.55-8 402.75-8.95L402.75-8.95 406.15-25 413.35-25 409.75-8Q409.65-7.55 409.6-7.18 409.55-6.8 409.55-6.4L409.55-6.4Q409.55-5.4 410.02-4.98 410.5-4.55 411.6-4.55L411.6-4.55Q413-4.55 414.25-5.78 415.5-7 416.1-8.95L416.1-8.95 418.2-8.95Q416.6-4.4 413.9-2.05 411.2 0.3 407.7 0.3L407.7 0.3Q405.2 0.3 403.77-1.28 402.35-2.85 402.35-5.7ZM422.75 0.3L422.75 0.3Q419.4 0.3 417.57-1.38 415.75-3.05 415.75-6.1L415.75-6.1Q415.75-6.8 415.85-7.5 415.95-8.2 416.1-8.95L416.1-8.95 421.45-34 428.85-35 426.45-23.75Q427.65-24.5 428.57-24.83 429.5-25.15 430.55-25.15L430.55-25.15Q433.5-25.15 434.97-23.03 436.45-20.9 436.45-16.6L436.45-16.6Q436.45-13.65 435.55-10.55 434.65-7.45 433.05-5.15L433.05-5.15Q431.2-2.45 428.6-1.07 426 0.3 422.75 0.3ZM422.9-6.85L422.9-6.85Q422.9-5.7 423.57-5.13 424.25-4.55 425.55-4.55L425.55-4.55Q427.8-4.55 429.6-8.5 431.4-12.45 431.4-16.8L431.4-16.8Q431.4-18.9 430.67-20.25 429.95-21.6 428.75-21.6L428.75-21.6Q427.95-21.6 427.05-21.35 426.15-21.1 425.8-20.7L425.8-20.7 423.05-8Q423-7.7 422.95-7.4 422.9-7.1 422.9-6.85ZM447.59-19L443.59 0 436.39 0 441.69-25 448.89-25 448.24-21.9Q450.44-23.75 451.72-24.38 452.99-25 454.29-25L454.29-25Q455.84-25 456.79-23.93 457.74-22.85 457.74-21.25L457.74-21.25Q457.74-19.7 456.74-18.65 455.74-17.6 454.14-17.6L454.14-17.6Q453.29-17.6 452.82-18 452.34-18.4 452.14-19.65L452.14-19.65Q451.99-20.45 451.79-20.68 451.59-20.9 451.24-20.9L451.24-20.9Q450.39-20.9 449.64-20.55 448.89-20.2 447.59-19L447.59-19ZM475.34-20.65L475.34-20.65Q475.34-16.5 471.94-13.43 468.54-10.35 463.84-10.1L463.84-10.1Q463.79-9.25 463.77-8.83 463.74-8.4 463.74-8.1L463.74-8.1Q463.74-5.8 464.52-4.85 465.29-3.9 467.34-3.9L467.34-3.9Q469.69-3.9 471.67-4.98 473.64-6.05 476.19-8.95L476.19-8.95 477.89-8.95Q474.99-4.25 471.59-1.98 468.19 0.3 464.14 0.3L464.14 0.3Q460.29 0.3 458.32-1.7 456.34-3.7 456.34-7.65L456.34-7.65Q456.34-10.5 457.24-13.7 458.14-16.9 459.64-19.4L459.64-19.4Q461.49-22.4 464.07-23.93 466.64-25.45 469.84-25.45L469.84-25.45Q472.59-25.45 473.97-24.28 475.34-23.1 475.34-20.65ZM470.24-22.8L470.24-22.8Q468.54-22.8 466.82-19.78 465.09-16.75 464.24-12.5L464.24-12.5Q467.14-12.7 469.32-15.18 471.49-17.65 471.49-20.75L471.49-20.75Q471.49-21.8 471.19-22.3 470.89-22.8 470.24-22.8Z" opacity="1" transform="matrix(1,0,0,1,0,0)" fill="#001d6e" class="undefined-text-1" data-fill-palette-color="secondary" id="text-1"></path></svg></g></svg></g></svg></g></svg></g><g transform="matrix(1,0,0,1,163.26745601631703,0)"><svg viewBox="0 0 68.98508796736593 50.29550773233861" height="50.29550773233861" width="68.98508796736593"><g><svg xmlns="http://www.w3.org/2000/svg" xmlns:xlink="http://www.w3.org/1999/xlink" version="1.1" x="7.9999999999999964" y="0" viewBox="7.026415790486994 8.188432826314855 88.09458420951302 83.6228080628208" enable-background="new 0 0 100 100" xml:space="preserve" height="50.29550773233861" width="52.985087967365935" class="icon-icon-0" data-fill-palette-color="accent" id="icon-0"><g fill="#33673b" data-fill-palette-color="accent"><path d="M77.011 42.529c-0.258-0.948-0.946-1.231-0.946-1.231s-0.647-4.238-5.48-4.168c-4.832 0.07-5.44 3.594-6.666 4.93-0.801 0.873-2.134 1.817-2.96 2.366-0.438 0.291-0.913-1.797-0.913-1.797-5.257-17.483-1.448-27.201 1.73-33.391 0.854-1.664-2.485-1.07-4.014-0.135C36.489 22.102 39.863 43.094 41.833 44.29c3.339 2.025 7.029 4.784 7.029 4.784s2.065 1.311-11.058-5.025C23.668 37.224 14.61 25.221 9.677 19.63c-1.312-1.488-2.435 0.226-2.562 4.139-0.287 8.84-0.493 21.245 9.875 31.054 11.985 11.339 23.226 7.386 22.589 8.243-4.295 5.781-5.456 9.963-5.456 9.963-3.98 4.798-15.684 17.972-15.684 17.972 1.787 2.159 4.961-0.68 4.961-0.68 3.064 1.744 5.712-1.748 5.712-1.748s2.244 0.365 3.885-2.262c1.369-2.191 6.193-10.72 6.193-10.72s13.244-1.002 21.364-8.055c5.017-4.358 6.604-9.194 7.907-15.305 1.303-6.111 7.576-7.859 7.576-7.859l3.677 0.177L77.011 42.529zM71.735 41.483c-0.438 0.006-0.798-0.344-0.805-0.782s0.344-0.798 0.782-0.805c0.438-0.006 0.798 0.344 0.805 0.782C72.523 41.116 72.173 41.477 71.735 41.483z" fill="#33673b" data-fill-palette-color="accent"></path><path d="M79.073 35.351c0 0 0.782 1.626 2.718 1.545l0.181 0.506c-1.68 1.179-1.099 3.023-1.099 3.023l0.389 1.214c0.457 0.062 0.945 0.198 1.105 0.227-0.054-0.223 0.211-0.45 0.422-0.362 0.085 0.035 0.15 0.105 0.216 0.169 0.063 0.061 0.134 0.111 0.204 0.163l-0.45-1.405c0 0-0.208-0.477-0.051-0.969l0.109 0.306c0 0 0.381 1.009 1.585 0.678 0.855-0.235 0.68-1.195 0.587-1.54 0.29 0.312 0.404 0.699 0.404 0.699l0.325 0.969c0-0.139 0-0.279 0-0.418 0.278 0.103 0.556 0.205 0.834 0.308-0.058-0.117-0.116-0.234-0.174-0.351 0.067-0.028 0.134-0.055 0.201-0.083 0.05 0.067 0.099 0.133 0.149 0.2-0.053-0.18 0.154-0.344 0.342-0.343 0.131 0 0.255 0.047 0.379 0.095l-0.548-1.632c0 0-0.664-1.844-2.728-1.718l-0.179-0.494c1.605-1.17 1.086-3.081 1.086-3.081l-1.07-3.189c0 0-0.895-2.512-3.866-1.483s-2.162 3.558-2.162 3.558L79.073 35.351zM80.686 30.153c1.381-0.535 1.813 0.971 1.813 0.971l0.616 1.835c0 0 0.274 0.568 0.127 1.112l-0.417-1.149c0 0-0.377-0.788-1.48-0.402-0.96 0.335-0.673 1.245-0.673 1.245l0.356 0.995c-0.417-0.323-0.533-0.85-0.533-0.85l-0.628-1.96C79.866 31.95 79.306 30.689 80.686 30.153z" fill="#33673b" data-fill-palette-color="accent"></path><path d="M87.071 47.651c-0.006-0.083-0.011-0.166-0.017-0.248-0.071-0.013-0.143-0.026-0.214-0.039-0.015 0.13-0.029 0.26-0.044 0.389-0.178-0.237-0.357-0.474-0.535-0.711-0.076 0.117-0.151 0.234-0.227 0.352l-0.224 0.885c0 0-0.077 0.595-0.47 0.976l0.021-0.128c0 0 0.157-1.067-1.056-1.363-0.758-0.185-1.091 0.513-1.22 0.921-0.189-0.504 0.006-1.024 0.006-1.024l0.151-0.564c-0.031-0.082-0.063-0.163-0.083-0.248-0.021-0.089-0.038-0.183-0.09-0.259-0.131-0.188-0.477-0.14-0.551 0.076-0.119-0.111-0.455-0.489-0.806-0.789l-0.595 2.225c0 0-0.237 1.885 1.578 2.845l-0.125 0.78c-1.971 0.243-2.446 2.166-2.446 2.166l-0.613 3.307c0 0-0.437 2.63 2.659 3.174 3.096 0.543 3.618-2.06 3.618-2.06l0.7-3.509c0 0 0.106-1.801-1.625-2.671l0.119-0.721c1.86-0.202 2.426-1.992 2.426-1.992l0.403-1.592c-0.079-0.107-0.157-0.213-0.267-0.284C87.387 47.446 87.124 47.472 87.071 47.651zM84.546 55.376l-0.403 2.019c0 0-0.123 1.375-1.59 1.172-1.467-0.202-1.113-1.73-1.113-1.73l0.353-1.903c0 0 0.036-0.63 0.429-1.034l-0.193 1.207c0 0-0.053 0.872 1.098 1.07 1.002 0.173 1.193-0.761 1.193-0.761l0.173-1.043C84.7 54.859 84.546 55.376 84.546 55.376z" fill="#33673b" data-fill-palette-color="accent"></path><path d="M88.152 42.437c-0.365-0.168-0.328 0.477-0.564 0.461-0.155-0.01-0.31-0.02-0.465-0.031-0.003 0.222 0.03 0.445 0.098 0.657 0.344 0.011 0.688 0.049 1.026 0.114C88.274 43.399 88.418 42.56 88.152 42.437z" fill="#33673b" data-fill-palette-color="accent"></path><path d="M83.543 44.785c0.019 0.048 0.054 0.087 0.088 0.126 0.223 0.25 0.446 0.5 0.669 0.75 0.025 0.028 0.056 0.058 0.093 0.052 0.025-0.004 0.044-0.024 0.061-0.042 0.117-0.128 0.234-0.256 0.351-0.384 0.013-0.014 0.027-0.031 0.025-0.05-0.002-0.019-0.018-0.033-0.034-0.045-0.286-0.218-0.58-0.427-0.881-0.624C83.59 44.355 83.356 44.309 83.543 44.785z" fill="#33673b" data-fill-palette-color="accent"></path><path d="M90.616 35.15c0.016-0.077 0.028-0.168-0.028-0.223-0.04-0.039-0.1-0.045-0.156-0.049-0.248-0.018-0.496-0.036-0.744-0.053-0.163 1.113-0.389 2.216-0.677 3.303-0.143 0.54-0.354 1.072-0.478 1.614-0.055 0.241-0.145 0.224-0.006 0.422 0.043 0.062 0.613 0.268 0.601 0.304C89.74 38.731 90.238 36.953 90.616 35.15z" fill="#33673b" data-fill-palette-color="accent"></path><path d="M91.898 42.322c-0.742 0.09-2.141-0.091-2.112 0.899 1.674 0.119 3.492-0.182 5.164-0.325 0.043-0.004 0.09-0.01 0.117-0.043 0.023-0.027 0.025-0.066 0.027-0.102 0.009-0.244 0.018-0.488 0.027-0.732C94.045 42.091 92.97 42.191 91.898 42.322z" fill="#33673b" data-fill-palette-color="accent"></path><path d="M91.052 47.287c-0.308-0.195-1.837-1.462-1.969-0.825 0.257 0.173 0.478 0.37 0.695 0.595 1.039 1.076 2.211 2.024 3.48 2.816 0.051-0.364 0.102-0.728 0.153-1.091C93.437 48.595 91.301 47.444 91.052 47.287z" fill="#33673b" data-fill-palette-color="accent"></path><path d="M80.144 42.531c0.416-0.473 0.346-0.706 0.012-1.197-0.36-0.529-0.733-1.05-1.099-1.575-0.723-1.035-1.445-2.07-2.168-3.105-0.17 0.335-0.341 0.67-0.511 1.004-0.025 0.05-0.051 0.102-0.049 0.157 0.002 0.057 0.034 0.107 0.065 0.155C77.472 39.623 79.042 40.887 80.144 42.531z" fill="#33673b" data-fill-palette-color="accent"></path><path d="M80.628 46.107c0.004-0.059-0.04-0.109-0.082-0.151-0.362-0.37-0.505-0.587-0.92-0.151-0.274 0.288-0.429 0.678-0.632 1.014-0.57 0.945-1.496 1.615-2.198 2.467-0.053 0.065-0.108 0.142-0.092 0.224 0.01 0.051 0.046 0.093 0.081 0.132 0.195 0.219 0.39 0.438 0.585 0.658 0.791-1.54 2.077-2.756 3.196-4.077C80.595 46.188 80.625 46.151 80.628 46.107z" fill="#33673b" data-fill-palette-color="accent"></path></g></svg></g></svg></g><g><rect width="163.26745601631703" height="3.8898708402305417" y="45.40563689210808" x="232.25254398368295" fill="#33673b" data-fill-palette-color="accent"></rect><rect width="163.26745601631703" height="3.8898708402305417" y="45.40563689210808" x="0" fill="#33673b" data-fill-palette-color="accent"></rect><rect width="163.26745601631703" height="3.8898708402305417" y="37.62589521164699" x="232.25254398368295" fill="#33673b" data-fill-palette-color="accent"></rect><rect width="163.26745601631703" height="3.8898708402305417" y="37.62589521164699" x="0" fill="#33673b" data-fill-palette-color="accent"></rect></g></svg></g><defs></defs></svg><rect width="395.52" height="133.26496812570073" fill="none" stroke="none" visibility="hidden"></rect></g></svg></g></svg>